<svg xmlns="http://www.w3.org/2000/svg" data-name="Layer 1" viewBox="0 0 102.13 127.6625" x="0px" y="0px"><defs><style>.cls-1{fill:#fff;}</style></defs><title>Hand_DRAFT2</title><path class="cls-1" d="M78.12,58.68a8.06,8.06,0,0,1-2.37,5.73,1.86,1.86,0,0,1-1.29.53,1.82,1.82,0,0,1-1.29-3.11,4.47,4.47,0,0,0,0-6.3,1.82,1.82,0,0,1,2.58-2.58A8.06,8.06,0,0,1,78.12,58.68Z"/><path d="M42.86,42.59h0l-6.31-6.31.09.08Z"/><path d="M79.7,42.72c-.34-.4-.7-.78-1.07-1.14L67.26,30.21A6.6,6.6,0,0,0,59.4,29.1l-8.6-8.61a7.16,7.16,0,0,0-10.09,0,7,7,0,0,0-1.83,3.15,7.13,7.13,0,0,0-9.63,10.5l.41.41a7.14,7.14,0,0,0-3.11,11.91l1.24,1.24a6.94,6.94,0,0,0-3.11,1.82,7.15,7.15,0,0,0,0,10.08l18,18a25.72,25.72,0,0,0,18.12,7.58h.14a25.17,25.17,0,0,0,17.91-7.4A25.54,25.54,0,0,0,79.7,42.72ZM76.23,75.17A21.43,21.43,0,0,1,60.78,81.5,22,22,0,0,1,45.22,75l-18-18a3.42,3.42,0,0,1-1-2.46,3.45,3.45,0,0,1,1-2.47,3.6,3.6,0,0,1,4.93,0L44.74,64.64a1.82,1.82,0,0,0,2.57-2.57L34.77,49.52l-5.64-5.64a3.49,3.49,0,0,1,0-4.93,3.58,3.58,0,0,1,4.93,0L49.51,54.4a1.82,1.82,0,0,0,2.57-2.58L31.82,31.56a3.51,3.51,0,0,1,0-4.93,3.6,3.6,0,0,1,4.94,0l4,4,4.6,4.6,9,9a1.82,1.82,0,0,0,2.58-2.58l-9-9L43.29,28a3.49,3.49,0,0,1,0-4.93,3.58,3.58,0,0,1,4.93,0l8.6,8.61a6.61,6.61,0,0,0,1.11,7.86l4.72,4.72a10.2,10.2,0,0,0,.22,12.84.68.68,0,0,0,.12.12,1.8,1.8,0,0,0,2.45.12,1.82,1.82,0,0,0,.23-2.57,6.57,6.57,0,0,1,.42-8.9,1.75,1.75,0,0,1,.2-.19,1.83,1.83,0,0,0,.19-2.75l-6-6a3,3,0,0,1,4.18-4.17L76,44.15c.31.31.6.62.9,1A21.89,21.89,0,0,1,76.23,75.17Z"/><path d="M78.12,58.68a8.06,8.06,0,0,1-2.37,5.73,1.86,1.86,0,0,1-1.29.53,1.82,1.82,0,0,1-1.29-3.11,4.47,4.47,0,0,0,0-6.3,1.82,1.82,0,0,1,2.58-2.58A8.06,8.06,0,0,1,78.12,58.68Z"/><path d="M70.69,29.14a1.82,1.82,0,0,1-1.82-1.82,4.46,4.46,0,0,0-4.45-4.45,1.82,1.82,0,1,1,0-3.65,8.11,8.11,0,0,1,8.1,8.1A1.82,1.82,0,0,1,70.69,29.14Z"/><path d="M76.93,28.76a1.82,1.82,0,0,1-1.82-1.82A10.32,10.32,0,0,0,64.79,16.63a1.82,1.82,0,1,1,0-3.65,14,14,0,0,1,14,14A1.82,1.82,0,0,1,76.93,28.76Z"/><path d="M26.25,73.58a8.11,8.11,0,0,1-8.1-8.1,1.82,1.82,0,0,1,3.65,0,4.46,4.46,0,0,0,4.45,4.45,1.82,1.82,0,1,1,0,3.65Z"/><path d="M25.87,79.82a14,14,0,0,1-14-14,1.82,1.82,0,0,1,3.65,0A10.32,10.32,0,0,0,25.87,76.17a1.82,1.82,0,1,1,0,3.65Z"/></svg>